<svg width="1503" height="772" viewBox="0 0 1503 772" fill="none" xmlns="http://www.w3.org/2000/svg">
<path fill-rule="evenodd" clip-rule="evenodd" d="M184.786 193.324C189.866 188.243 195.111 183.364 200.507 178.69C100.875 287.343 110.291 445.512 214.485 549.706C320.551 646.579 514.651 649.054 618.242 534.856C627.705 525.394 636.288 515.508 644.003 505.275C632.125 527.9 616.626 549.2 597.383 568.444C488.622 677.204 307.116 674.156 192.918 570.566C87.6187 475.046 68.467 309.643 184.786 193.324Z" fill="#0177B2"/>
<path d="M211.267 195.834C260.69 146.41 326.108 122.893 390.407 125.387C337.23 136.33 286.852 160.701 253.022 188.02C147.998 272.829 153.787 426.782 245.951 518.946C306.874 579.869 393.234 600.105 471.741 579.864C384.605 618.285 279.779 602.343 209.146 531.709C116.982 439.545 117.932 289.169 211.267 195.834Z" fill="#4FB4DB"/>
<path d="M247.011 208.172C160.771 294.413 172.765 452.124 276.356 519.653C213.424 464.499 183.398 317.04 269.639 230.8C355.879 144.559 480.415 146.596 581.756 203.647C491.246 113.137 337.167 118.016 247.011 208.172Z" fill="#0177B2"/>
<mask id="path-4-inside-1_298_85" fill="white">
<path d="M478.552 312.13C481.319 306.78 487.901 304.564 492.964 307.827C507.022 316.888 518.311 329.583 525.5 344.582C534.234 362.802 536.407 383.359 531.671 402.938C526.934 422.516 515.563 439.974 499.391 452.496C483.219 465.019 463.189 471.877 442.531 471.964C421.873 472.05 401.791 465.361 385.523 452.974C369.255 440.587 357.749 423.225 352.862 403.688C347.974 384.15 349.989 363.575 358.582 345.282C365.655 330.223 376.845 317.433 390.834 308.255C395.871 304.95 402.47 307.113 405.279 312.442C408.174 317.935 405.919 324.669 400.887 328.308C391.548 335.059 384.051 344.029 379.163 354.435C372.686 368.225 371.167 383.735 374.852 398.463C378.536 413.191 387.209 426.279 399.472 435.616C411.735 444.953 426.874 449.996 442.446 449.93C458.019 449.865 473.118 444.696 485.308 435.256C497.499 425.816 506.07 412.656 509.641 397.897C513.212 383.139 511.573 367.643 504.989 353.908C500.023 343.546 492.46 334.642 483.073 327.969C478.01 324.369 475.699 317.649 478.552 312.13Z"/>
</mask>
<path d="M478.552 312.13C481.319 306.78 487.901 304.564 492.964 307.827C507.022 316.888 518.311 329.583 525.5 344.582C534.234 362.802 536.407 383.359 531.671 402.938C526.934 422.516 515.563 439.974 499.391 452.496C483.219 465.019 463.189 471.877 442.531 471.964C421.873 472.05 401.791 465.361 385.523 452.974C369.255 440.587 357.749 423.225 352.862 403.688C347.974 384.15 349.989 363.575 358.582 345.282C365.655 330.223 376.845 317.433 390.834 308.255C395.871 304.95 402.47 307.113 405.279 312.442C408.174 317.935 405.919 324.669 400.887 328.308C391.548 335.059 384.051 344.029 379.163 354.435C372.686 368.225 371.167 383.735 374.852 398.463C378.536 413.191 387.209 426.279 399.472 435.616C411.735 444.953 426.874 449.996 442.446 449.93C458.019 449.865 473.118 444.696 485.308 435.256C497.499 425.816 506.07 412.656 509.641 397.897C513.212 383.139 511.573 367.643 504.989 353.908C500.023 343.546 492.46 334.642 483.073 327.969C478.01 324.369 475.699 317.649 478.552 312.13Z" fill="#0177B2" stroke="#0177B2" stroke-width="2" mask="url(#path-4-inside-1_298_85)"/>
<line x1="441.012" y1="356.211" x2="441.012" y2="288.53" stroke="#0177B2" stroke-width="20" stroke-linecap="round"/>
<path d="M635.781 325C635.781 307.667 639.531 292.25 647.031 278.75C654.531 265.083 664.948 254.5 678.281 247C691.781 239.333 707.031 235.5 724.031 235.5C744.865 235.5 762.698 241 777.531 252C792.365 263 802.281 278 807.281 297H760.281C756.781 289.667 751.781 284.083 745.281 280.25C738.948 276.417 731.698 274.5 723.531 274.5C710.365 274.5 699.698 279.083 691.531 288.25C683.365 297.417 679.281 309.667 679.281 325C679.281 340.333 683.365 352.583 691.531 361.75C699.698 370.917 710.365 375.5 723.531 375.5C731.698 375.5 738.948 373.583 745.281 369.75C751.781 365.917 756.781 360.333 760.281 353H807.281C802.281 372 792.365 387 777.531 398C762.698 408.833 744.865 414.25 724.031 414.25C707.031 414.25 691.781 410.5 678.281 403C664.948 395.333 654.531 384.75 647.031 371.25C639.531 357.75 635.781 342.333 635.781 325ZM894.211 237.5V413H851.461V237.5H894.211ZM1107.94 237.5L1045.69 413H992.191L929.941 237.5H975.441L1018.94 370L1062.69 237.5H1107.94ZM1186.56 237.5V413H1143.81V237.5H1186.56ZM1228.29 325C1228.29 307.667 1232.04 292.25 1239.54 278.75C1247.04 265.083 1257.46 254.5 1270.79 247C1284.29 239.333 1299.54 235.5 1316.54 235.5C1337.37 235.5 1355.21 241 1370.04 252C1384.87 263 1394.79 278 1399.79 297H1352.79C1349.29 289.667 1344.29 284.083 1337.79 280.25C1331.46 276.417 1324.21 274.5 1316.04 274.5C1302.87 274.5 1292.21 279.083 1284.04 288.25C1275.87 297.417 1271.79 309.667 1271.79 325C1271.79 340.333 1275.87 352.583 1284.04 361.75C1292.21 370.917 1302.87 375.5 1316.04 375.5C1324.21 375.5 1331.46 373.583 1337.79 369.75C1344.29 365.917 1349.29 360.333 1352.79 353H1399.79C1394.79 372 1384.87 387 1370.04 398C1355.21 408.833 1337.37 414.25 1316.54 414.25C1299.54 414.25 1284.29 410.5 1270.79 403C1257.46 395.333 1247.04 384.75 1239.54 371.25C1232.04 357.75 1228.29 342.333 1228.29 325Z" fill="#0177B2"/>
<path d="M680.934 433.21V438.39H667.634V482H661.264V438.39H647.894V433.21H680.934ZM717.645 438.39V454.7H735.425V459.95H717.645V476.75H737.525V482H711.275V433.14H737.525V438.39H717.645ZM767.283 457.57C767.283 452.81 768.357 448.54 770.503 444.76C772.65 440.933 775.567 437.947 779.253 435.8C782.987 433.653 787.117 432.58 791.643 432.58C796.963 432.58 801.607 433.863 805.573 436.43C809.54 438.997 812.433 442.637 814.253 447.35H806.623C805.27 444.41 803.31 442.147 800.743 440.56C798.223 438.973 795.19 438.18 791.643 438.18C788.237 438.18 785.18 438.973 782.473 440.56C779.767 442.147 777.643 444.41 776.103 447.35C774.563 450.243 773.793 453.65 773.793 457.57C773.793 461.443 774.563 464.85 776.103 467.79C777.643 470.683 779.767 472.923 782.473 474.51C785.18 476.097 788.237 476.89 791.643 476.89C795.19 476.89 798.223 476.12 800.743 474.58C803.31 472.993 805.27 470.73 806.623 467.79H814.253C812.433 472.457 809.54 476.073 805.573 478.64C801.607 481.16 796.963 482.42 791.643 482.42C787.117 482.42 782.987 481.37 779.253 479.27C775.567 477.123 772.65 474.16 770.503 470.38C768.357 466.6 767.283 462.33 767.283 457.57ZM883.826 433.21V482H877.456V459.88H852.606V482H846.236V433.21H852.606V454.63H877.456V433.21H883.826ZM955.562 482H949.193L923.573 443.15V482H917.203V433.14H923.573L949.193 471.92V433.14H955.562V482ZM1011.04 482.49C1006.51 482.49 1002.38 481.44 998.651 479.34C994.918 477.193 991.955 474.23 989.761 470.45C987.615 466.623 986.541 462.33 986.541 457.57C986.541 452.81 987.615 448.54 989.761 444.76C991.955 440.933 994.918 437.97 998.651 435.87C1002.38 433.723 1006.51 432.65 1011.04 432.65C1015.61 432.65 1019.77 433.723 1023.5 435.87C1027.23 437.97 1030.17 440.91 1032.32 444.69C1034.47 448.47 1035.54 452.763 1035.54 457.57C1035.54 462.377 1034.47 466.67 1032.32 470.45C1030.17 474.23 1027.23 477.193 1023.5 479.34C1019.77 481.44 1015.61 482.49 1011.04 482.49ZM1011.04 476.96C1014.45 476.96 1017.5 476.167 1020.21 474.58C1022.96 472.993 1025.11 470.73 1026.65 467.79C1028.24 464.85 1029.03 461.443 1029.03 457.57C1029.03 453.65 1028.24 450.243 1026.65 447.35C1025.11 444.41 1022.99 442.147 1020.28 440.56C1017.57 438.973 1014.49 438.18 1011.04 438.18C1007.59 438.18 1004.51 438.973 1001.8 440.56C999.095 442.147 996.948 444.41 995.361 447.35C993.821 450.243 993.051 453.65 993.051 457.57C993.051 461.443 993.821 464.85 995.361 467.79C996.948 470.73 999.095 472.993 1001.8 474.58C1004.55 476.167 1007.63 476.96 1011.04 476.96ZM1072.82 476.82H1089.9V482H1066.45V433.21H1072.82V476.82ZM1141.29 482.49C1136.76 482.49 1132.63 481.44 1128.9 479.34C1125.16 477.193 1122.2 474.23 1120.01 470.45C1117.86 466.623 1116.79 462.33 1116.79 457.57C1116.79 452.81 1117.86 448.54 1120.01 444.76C1122.2 440.933 1125.16 437.97 1128.9 435.87C1132.63 433.723 1136.76 432.65 1141.29 432.65C1145.86 432.65 1150.01 433.723 1153.75 435.87C1157.48 437.97 1160.42 440.91 1162.57 444.69C1164.71 448.47 1165.79 452.763 1165.79 457.57C1165.79 462.377 1164.71 466.67 1162.57 470.45C1160.42 474.23 1157.48 477.193 1153.75 479.34C1150.01 481.44 1145.86 482.49 1141.29 482.49ZM1141.29 476.96C1144.69 476.96 1147.75 476.167 1150.46 474.58C1153.21 472.993 1155.36 470.73 1156.9 467.79C1158.48 464.85 1159.28 461.443 1159.28 457.57C1159.28 453.65 1158.48 450.243 1156.9 447.35C1155.36 444.41 1153.23 442.147 1150.53 440.56C1147.82 438.973 1144.74 438.18 1141.29 438.18C1137.83 438.18 1134.75 438.973 1132.05 440.56C1129.34 442.147 1127.19 444.41 1125.61 447.35C1124.07 450.243 1123.3 453.65 1123.3 457.57C1123.3 461.443 1124.07 464.85 1125.61 467.79C1127.19 470.73 1129.34 472.993 1132.05 474.58C1134.8 476.167 1137.88 476.96 1141.29 476.96ZM1233.65 447.35C1232.3 444.503 1230.34 442.31 1227.77 440.77C1225.21 439.183 1222.22 438.39 1218.81 438.39C1215.41 438.39 1212.33 439.183 1209.57 440.77C1206.87 442.31 1204.72 444.55 1203.13 447.49C1201.59 450.383 1200.82 453.743 1200.82 457.57C1200.82 461.397 1201.59 464.757 1203.13 467.65C1204.72 470.543 1206.87 472.783 1209.57 474.37C1212.33 475.91 1215.41 476.68 1218.81 476.68C1223.57 476.68 1227.49 475.257 1230.57 472.41C1233.65 469.563 1235.45 465.713 1235.96 460.86H1216.5V455.68H1242.75V460.58C1242.38 464.593 1241.12 468.28 1238.97 471.64C1236.83 474.953 1234 477.59 1230.5 479.55C1227 481.463 1223.11 482.42 1218.81 482.42C1214.29 482.42 1210.16 481.37 1206.42 479.27C1202.69 477.123 1199.73 474.16 1197.53 470.38C1195.39 466.6 1194.31 462.33 1194.31 457.57C1194.31 452.81 1195.39 448.54 1197.53 444.76C1199.73 440.933 1202.69 437.97 1206.42 435.87C1210.16 433.723 1214.29 432.65 1218.81 432.65C1223.99 432.65 1228.57 433.933 1232.53 436.5C1236.55 439.067 1239.46 442.683 1241.28 447.35H1233.65ZM1280.05 433.21V482H1273.68V433.21H1280.05ZM1319.77 438.39V454.7H1337.55V459.95H1319.77V476.75H1339.65V482H1313.4V433.14H1339.65V438.39H1319.77ZM1387.26 482.49C1384.04 482.49 1381.15 481.93 1378.58 480.81C1376.06 479.643 1374.08 478.057 1372.63 476.05C1371.19 473.997 1370.44 471.64 1370.39 468.98H1377.18C1377.42 471.267 1378.35 473.203 1379.98 474.79C1381.66 476.33 1384.09 477.1 1387.26 477.1C1390.3 477.1 1392.68 476.353 1394.4 474.86C1396.18 473.32 1397.06 471.36 1397.06 468.98C1397.06 467.113 1396.55 465.597 1395.52 464.43C1394.5 463.263 1393.21 462.377 1391.67 461.77C1390.13 461.163 1388.06 460.51 1385.44 459.81C1382.22 458.97 1379.63 458.13 1377.67 457.29C1375.76 456.45 1374.1 455.143 1372.7 453.37C1371.35 451.55 1370.67 449.123 1370.67 446.09C1370.67 443.43 1371.35 441.073 1372.7 439.02C1374.06 436.967 1375.95 435.38 1378.37 434.26C1380.85 433.14 1383.67 432.58 1386.84 432.58C1391.42 432.58 1395.15 433.723 1398.04 436.01C1400.98 438.297 1402.64 441.33 1403.01 445.11H1396.01C1395.78 443.243 1394.8 441.61 1393.07 440.21C1391.35 438.763 1389.06 438.04 1386.21 438.04C1383.55 438.04 1381.38 438.74 1379.7 440.14C1378.02 441.493 1377.18 443.407 1377.18 445.88C1377.18 447.653 1377.67 449.1 1378.65 450.22C1379.68 451.34 1380.92 452.203 1382.36 452.81C1383.86 453.37 1385.93 454.023 1388.59 454.77C1391.81 455.657 1394.4 456.543 1396.36 457.43C1398.32 458.27 1400 459.6 1401.4 461.42C1402.8 463.193 1403.5 465.62 1403.5 468.7C1403.5 471.08 1402.87 473.32 1401.61 475.42C1400.35 477.52 1398.49 479.223 1396.01 480.53C1393.54 481.837 1390.62 482.49 1387.26 482.49Z" fill="#4EB4DB"/>
</svg>
